<svg version="1.1" viewBox="0.0 0.0 306.244094488189 191.07874015748033" fill="none" stroke="none" stroke-linecap="square" stroke-miterlimit="10" xmlns:xlink="http://www.w3.org/1999/xlink" xmlns="http://www.w3.org/2000/svg"><clipPath id="p.0"><path d="m0 0l306.24408 0l0 191.07874l-306.24408 0l0 -191.07874z" clip-rule="nonzero"/></clipPath><g clip-path="url(#p.0)"><path fill="#000000" fill-opacity="0.0" d="m0 0l306.24408 0l0 191.07874l-306.24408 0z" fill-rule="evenodd"/><path fill="#000000" fill-opacity="0.0" d="m0 0l306.2362 0l0 189.6378l-306.2362 0z" fill-rule="evenodd"/><path fill="#6aa84f" d="m17.157166 16.514648l35.109375 0q4.640625 0 8.390625 2.203125q3.75 2.203125 5.96875 5.90625q2.234375 3.703125 2.234375 8.296875l0 4.359375q0 6.515625 -3.75 9.890625q3.328125 2.15625 4.828125 5.140625q1.5 2.96875 1.5 7.421875l0 7.359375q0 4.40625 -2.234375 8.0625q-2.21875 3.65625 -5.96875 5.84375q-3.75 2.171875 -8.296875 2.171875l-37.78125 0l0 -66.65625zm37.875 56.765625q2.71875 0 4.640625 -1.84375q1.921875 -1.859375 1.921875 -4.484375l0 -7.359375q0 -2.625 -1.921875 -4.5q-1.921875 -1.875 -4.6875 -1.875l-22.3125 0l0 -9.84375l19.59375 0q2.765625 0 4.75 -1.796875q2.0 -1.8125 2.0 -4.390625l0 -4.265625q0 -2.71875 -2.0 -4.640625q-1.984375 -1.921875 -4.75 -1.921875l-25.21875 0l0 46.921875l27.984375 0zm27.1875 -28.640625q0 -4.171875 3.046875 -7.09375q3.046875 -2.9375 7.3125 -2.9375l20.25 0q3.890625 0 7.046875 1.90625q3.171875 1.890625 5.0625 5.109375q1.90625 3.203125 1.90625 7.09375l0 1.359375q0 3.84375 -1.90625 7.015625q-1.890625 3.15625 -5.0625 5.0625q-3.15625 1.890625 -7.046875 1.890625l-15.09375 0l0 -9.84375l15.1875 0q1.6875 0 2.875 -1.21875q1.203125 -1.21875 1.203125 -2.953125l0 -1.3125q0 -1.78125 -1.203125 -3.0q-1.1875 -1.21875 -2.875 -1.21875l-20.8125 0l0 24.9375q0 1.59375 1.078125 2.71875q1.078125 1.125 2.625 1.125l27.609375 0l0 9.890625l-27.609375 0q-3.75 0 -6.84375 -1.84375q-3.09375 -1.859375 -4.921875 -4.96875q-1.828125 -3.125 -1.828125 -6.875l0 -24.84375zm53.0625 -10.03125l6.328125 0l0 -18.09375l9.890625 0l0 18.09375l14.953125 0l0 9.890625l-14.953125 0l0 24.890625q0 1.59375 1.234375 2.75q1.25 1.140625 2.984375 1.140625l10.734375 0l0 9.890625l-10.875 0q-3.84375 0 -7.015625 -1.84375q-3.15625 -1.859375 -5.0625 -4.96875q-1.890625 -3.125 -1.890625 -6.921875l0 -24.9375l-6.328125 0l0 -9.890625zm36.796875 0l6.328125 0l0 -18.09375l9.890625 0l0 18.09375l14.953125 0l0 9.890625l-14.953125 0l0 24.890625q0 1.59375 1.234375 2.75q1.25 1.140625 2.984375 1.140625l10.734375 0l0 9.890625l-10.875 0q-3.84375 0 -7.015625 -1.84375q-3.15625 -1.859375 -5.0625 -4.96875q-1.890625 -3.125 -1.890625 -6.921875l0 -24.9375l-6.328125 0l0 -9.890625zm40.078125 10.03125q0 -4.171875 3.046875 -7.09375q3.046875 -2.9375 7.3125 -2.9375l20.25 0q3.890625 0 7.046875 1.90625q3.171875 1.890625 5.0625 5.109375q1.90625 3.203125 1.90625 7.09375l0 1.359375q0 3.84375 -1.90625 7.015625q-1.890625 3.15625 -5.0625 5.0625q-3.15625 1.890625 -7.046875 1.890625l-15.09375 0l0 -9.84375l15.1875 0q1.6875 0 2.875 -1.21875q1.203125 -1.21875 1.203125 -2.953125l0 -1.3125q0 -1.78125 -1.203125 -3.0q-1.1875 -1.21875 -2.875 -1.21875l-20.8125 0l0 24.9375q0 1.59375 1.078125 2.71875q1.078125 1.125 2.625 1.125l27.609375 0l0 9.890625l-27.609375 0q-3.75 0 -6.84375 -1.84375q-3.09375 -1.859375 -4.921875 -4.96875q-1.828125 -3.125 -1.828125 -6.875l0 -24.84375zm55.40625 3.5625q0 -3.75 1.890625 -6.84375q1.90625 -3.09375 5.0625 -4.921875q3.171875 -1.828125 7.015625 -1.828125l10.828125 0l0 9.84375l-10.828125 0q-1.6875 0 -2.890625 1.15625q-1.1875 1.140625 -1.1875 2.78125l0 34.78125l-9.890625 0l0 -34.96875z" fill-rule="nonzero"/><path fill="#6aa84f" d="m40.22431 97.3929l31.21875 0q4.125 0 7.453125 1.96875q3.328125 1.953125 5.296875 5.25q1.984375 3.28125 1.984375 7.375l0 3.859375q0 5.796875 -3.328125 8.796875q2.953125 1.921875 4.28125 4.5625q1.34375 2.640625 1.34375 6.609375l0 6.53125q0 3.921875 -1.984375 7.171875q-1.96875 3.25 -5.3125 5.1875q-3.328125 1.9375 -7.359375 1.9375l-33.59375 0l0 -59.25zm33.671875 50.453125q2.421875 0 4.125 -1.640625q1.703125 -1.640625 1.703125 -3.984375l0 -6.53125q0 -2.34375 -1.703125 -4.0q-1.703125 -1.671875 -4.171875 -1.671875l-19.828125 0l0 -8.75l17.421875 0q2.453125 0 4.21875 -1.59375q1.765625 -1.609375 1.765625 -3.90625l0 -3.78125q0 -2.421875 -1.765625 -4.125q-1.765625 -1.71875 -4.21875 -1.71875l-22.421875 0l0 41.703125l24.875 0zm30.99121 -34.359375l11.21875 29.90625l11.453125 -29.90625l9.703117 0l-22.906242 59.40625l-9.625 0l6.703125 -17.671875l-15.875 -41.734375l9.328125 0zm37.799248 0l5.625 0l0 -16.09375l8.78125 0l0 16.09375l13.296875 0l0 8.78125l-13.296875 0l0 22.125q0 1.421875 1.109375 2.4375q1.109375 1.015625 2.640625 1.015625l9.546875 0l0 8.796875l-9.671875 0q-3.40625 0 -6.21875 -1.640625q-2.8125 -1.65625 -4.5 -4.421875q-1.6875 -2.765625 -1.6875 -6.140625l0 -22.171875l-5.625 0l0 -8.78125zm35.617737 8.90625q0 -3.703125 2.703125 -6.296875q2.71875 -2.609375 6.5 -2.609375l18.0 0q3.46875 0 6.28125 1.6875q2.8125 1.671875 4.484375 4.53125q1.6875 2.859375 1.6875 6.3125l0 1.203125q0 3.421875 -1.6875 6.234375q-1.671875 2.8125 -4.484375 4.5q-2.8125 1.6875 -6.28125 1.6875l-13.40625 0l0 -8.75l13.5 0q1.5 0 2.5625 -1.078125q1.0625 -1.09375 1.0625 -2.625l0 -1.171875q0 -1.578125 -1.0625 -2.65625q-1.0625 -1.09375 -2.5625 -1.09375l-18.5 0l0 22.171875q0 1.40625 0.953125 2.40625q0.953125 1.0 2.328125 1.0l24.546875 0l0 8.796875l-24.546875 0q-3.328125 0 -6.078125 -1.640625q-2.75 -1.65625 -4.375 -4.421875q-1.625 -2.765625 -1.625 -6.109375l0 -22.078125zm48.408447 3.203125q0 -3.375 1.6875 -6.125q1.6875 -2.75 4.5 -4.359375q2.8125 -1.625 6.234375 -1.625l25.328125 0l0 8.78125l-25.328125 0q-1.5 0 -2.5625 0.984375q-1.0625 0.96875 -1.0625 2.34375l0 1.046875q0 1.421875 1.0625 2.421875q1.0625 1.0 2.5625 1.0l15.75 0q3.421875 0 6.234375 1.640625q2.8125 1.640625 4.46875 4.390625q1.671875 2.75 1.671875 6.125l0 2.25q0 3.34375 -1.671875 6.109375q-1.65625 2.765625 -4.46875 4.421875q-2.8125 1.640625 -6.234375 1.640625l-26.203125 0l0 -8.796875l26.203125 0q1.5 0 2.5625 -1.0q1.0625 -1.0 1.0625 -2.40625l0 -2.171875q0 -1.453125 -1.0625 -2.453125q-1.0625 -1.0 -2.5625 -1.0l-15.75 0q-3.421875 0 -6.234375 -1.640625q-2.8125 -1.65625 -4.5 -4.421875q-1.6875 -2.78125 -1.6875 -6.109375l0 -1.046875z" fill-rule="nonzero"/></g></svg>